<svg width="25" height="24" viewBox="0 0 25 24" fill="none" xmlns="http://www.w3.org/2000/svg">
<path d="M12.9066 10.87C12.8066 10.86 12.6866 10.86 12.5766 10.87C10.1966 10.79 8.30664 8.84 8.30664 6.44C8.30664 3.99 10.2866 2 12.7466 2C15.1966 2 17.1866 3.99 17.1866 6.44C17.1766 8.84 15.2866 10.79 12.9066 10.87Z" stroke="#888888" stroke-width="1.5" stroke-linecap="round" stroke-linejoin="round"/>
<path d="M7.9068 14.56C5.4868 16.18 5.4868 18.82 7.9068 20.43C10.6568 22.27 15.1668 22.27 17.9168 20.43C20.3368 18.81 20.3368 16.17 17.9168 14.56C15.1768 12.73 10.6668 12.73 7.9068 14.56Z" stroke="#888888" stroke-width="1.5" stroke-linecap="round" stroke-linejoin="round"/>
<path d="M7.90625 14.56C10.6662 12.73 15.1763 12.73 17.9163 14.56" stroke="#888888" stroke-width="1.5" stroke-linecap="round" stroke-linejoin="round"/>
</svg>
